<svg width="28" height="27" viewBox="0 0 28 27" fill="none" xmlns="http://www.w3.org/2000/svg">
<g id="carbon:asset-digital-twin" clip-path="url(#clip0_52_1525)">
<path id="Vector" d="M21.875 7.59375C22.8415 7.59375 23.625 6.83823 23.625 5.90625C23.625 4.97427 22.8415 4.21875 21.875 4.21875C20.9085 4.21875 20.125 4.97427 20.125 5.90625C20.125 6.83823 20.9085 7.59375 21.875 7.59375Z" fill="#7F3A35"/>
<path id="Vector_2" d="M10.5 19.4063C9.98083 19.4063 9.47331 19.2578 9.04163 18.9797C8.60995 18.7015 8.2735 18.3062 8.07482 17.8437C7.87614 17.3811 7.82415 16.8722 7.92544 16.3812C8.02673 15.8902 8.27673 15.4391 8.64385 15.0851C9.01096 14.7311 9.47869 14.4901 9.98789 14.3924C10.4971 14.2947 11.0249 14.3448 11.5045 14.5364C11.9842 14.728 12.3942 15.0525 12.6826 15.4687C12.971 15.885 13.125 16.3744 13.125 16.875C13.1243 17.5461 12.8475 18.1896 12.3554 18.6641C11.8633 19.1387 11.196 19.4056 10.5 19.4063ZM10.5 16.0313C10.3269 16.0313 10.1578 16.0807 10.0139 16.1734C9.86998 16.2662 9.75783 16.3979 9.69161 16.5521C9.62538 16.7063 9.60805 16.8759 9.64181 17.0396C9.67558 17.2033 9.75891 17.3536 9.88128 17.4716C10.0037 17.5896 10.1596 17.67 10.3293 17.7025C10.499 17.7351 10.675 17.7184 10.8348 17.6545C10.9947 17.5907 11.1314 17.4825 11.2275 17.3438C11.3237 17.205 11.375 17.0419 11.375 16.875C11.3748 16.6513 11.2825 16.4368 11.1185 16.2786C10.9544 16.1204 10.732 16.0315 10.5 16.0313Z" fill="#7F3A35"/>
<path id="Vector_3" d="M10.5 12.6562C10.9832 12.6562 11.375 12.2785 11.375 11.8125C11.375 11.3465 10.9832 10.9688 10.5 10.9688C10.0168 10.9688 9.625 11.3465 9.625 11.8125C9.625 12.2785 10.0168 12.6562 10.5 12.6562Z" fill="#7F3A35"/>
<path id="Vector_4" d="M15.6704 5.65723C16.1537 5.65723 16.5454 5.27947 16.5454 4.81348C16.5454 4.34749 16.1537 3.96973 15.6704 3.96973C15.1872 3.96973 14.7954 4.34749 14.7954 4.81348C14.7954 5.27947 15.1872 5.65723 15.6704 5.65723Z" fill="#7F3A35"/>
<path id="Vector_5" d="M8.5636 9.20264C9.04685 9.20264 9.4386 8.82488 9.4386 8.35889C9.4386 7.8929 9.04685 7.51514 8.5636 7.51514C8.08035 7.51514 7.6886 7.8929 7.6886 8.35889C7.6886 8.82488 8.08035 9.20264 8.5636 9.20264Z" fill="#7F3A35"/>
<path id="Vector_6" d="M10.9331 8.02051C11.4164 8.02051 11.8081 7.64275 11.8081 7.17676C11.8081 6.71077 11.4164 6.33301 10.9331 6.33301C10.4499 6.33301 10.0581 6.71077 10.0581 7.17676C10.0581 7.64275 10.4499 8.02051 10.9331 8.02051Z" fill="#7F3A35"/>
<path id="Vector_7" d="M13.3009 6.83838C13.7842 6.83838 14.1759 6.46062 14.1759 5.99463C14.1759 5.52864 13.7842 5.15088 13.3009 5.15088C12.8177 5.15088 12.4259 5.52864 12.4259 5.99463C12.4259 6.46062 12.8177 6.83838 13.3009 6.83838Z" fill="#7F3A35"/>
<path id="Vector_8" d="M4.10901 11.9702C4.59226 11.9702 4.98401 11.5925 4.98401 11.1265C4.98401 10.6605 4.59226 10.2827 4.10901 10.2827C3.62576 10.2827 3.23401 10.6605 3.23401 11.1265C3.23401 11.5925 3.62576 11.9702 4.10901 11.9702Z" fill="#7F3A35"/>
<path id="Vector_9" d="M1.86633 19.0947C2.34958 19.0947 2.74133 18.717 2.74133 18.251C2.74133 17.785 2.34958 17.4072 1.86633 17.4072C1.38308 17.4072 0.991333 17.785 0.991333 18.251C0.991333 18.717 1.38308 19.0947 1.86633 19.0947Z" fill="#7F3A35"/>
<path id="Vector_10" d="M2.69409 21.5293C3.17734 21.5293 3.56909 21.1515 3.56909 20.6855C3.56909 20.2196 3.17734 19.8418 2.69409 19.8418C2.21084 19.8418 1.81909 20.2196 1.81909 20.6855C1.81909 21.1515 2.21084 21.5293 2.69409 21.5293Z" fill="#7F3A35"/>
<path id="Vector_11" d="M4.24194 23.6099C4.72519 23.6099 5.11694 23.2321 5.11694 22.7661C5.11694 22.3001 4.72519 21.9224 4.24194 21.9224C3.75869 21.9224 3.36694 22.3001 3.36694 22.7661C3.36694 23.2321 3.75869 23.6099 4.24194 23.6099Z" fill="#7F3A35"/>
<path id="Vector_12" d="M6.36304 25.1523C6.84629 25.1523 7.23804 24.7746 7.23804 24.3086C7.23804 23.8426 6.84629 23.4648 6.36304 23.4648C5.87979 23.4648 5.48804 23.8426 5.48804 24.3086C5.48804 24.7746 5.87979 25.1523 6.36304 25.1523Z" fill="#7F3A35"/>
<path id="Vector_13" d="M1.83569 16.5342C2.31894 16.5342 2.71069 16.1564 2.71069 15.6904C2.71069 15.2244 2.31894 14.8467 1.83569 14.8467C1.35244 14.8467 0.960693 15.2244 0.960693 15.6904C0.960693 16.1564 1.35244 16.5342 1.83569 16.5342Z" fill="#7F3A35"/>
<path id="Vector_14" d="M2.60657 14.083C3.08982 14.083 3.48157 13.7052 3.48157 13.2393C3.48157 12.7733 3.08982 12.3955 2.60657 12.3955C2.12332 12.3955 1.73157 12.7733 1.73157 13.2393C1.73157 13.7052 2.12332 14.083 2.60657 14.083Z" fill="#7F3A35"/>
<path id="Vector_15" d="M6.19592 10.3848C6.67917 10.3848 7.07092 10.007 7.07092 9.54102C7.07092 9.07503 6.67917 8.69727 6.19592 8.69727C5.71267 8.69727 5.32092 9.07503 5.32092 9.54102C5.32092 10.007 5.71267 10.3848 6.19592 10.3848Z" fill="#7F3A35"/>
<path id="Vector_16" d="M18.0389 4.4751C18.5222 4.4751 18.9139 4.09734 18.9139 3.63135C18.9139 3.16536 18.5222 2.7876 18.0389 2.7876C17.5557 2.7876 17.1639 3.16536 17.1639 3.63135C17.1639 4.09734 17.5557 4.4751 18.0389 4.4751Z" fill="#7F3A35"/>
<path id="Vector_17" d="M20.4076 3.29297C20.8908 3.29297 21.2826 2.91521 21.2826 2.44922C21.2826 1.98323 20.8908 1.60547 20.4076 1.60547C19.9243 1.60547 19.5326 1.98323 19.5326 2.44922C19.5326 2.91521 19.9243 3.29297 20.4076 3.29297Z" fill="#7F3A35"/>
<path id="Vector_18" d="M25.3645 8.34473C25.8478 8.34473 26.2395 7.96697 26.2395 7.50098C26.2395 7.03499 25.8478 6.65723 25.3645 6.65723C24.8813 6.65723 24.4895 7.03499 24.4895 7.50098C24.4895 7.96697 24.8813 8.34473 25.3645 8.34473Z" fill="#7F3A35"/>
<path id="Vector_19" d="M24.1387 10.6279C24.6219 10.6279 25.0137 10.2502 25.0137 9.78418C25.0137 9.31819 24.6219 8.94043 24.1387 8.94043C23.6554 8.94043 23.2637 9.31819 23.2637 9.78418C23.2637 10.2502 23.6554 10.6279 24.1387 10.6279Z" fill="#7F3A35"/>
<path id="Vector_20" d="M22.9127 12.9121C23.396 12.9121 23.7877 12.5343 23.7877 12.0684C23.7877 11.6024 23.396 11.2246 22.9127 11.2246C22.4295 11.2246 22.0377 11.6024 22.0377 12.0684C22.0377 12.5343 22.4295 12.9121 22.9127 12.9121Z" fill="#7F3A35"/>
<path id="Vector_21" d="M21.686 15.1958C22.1693 15.1958 22.561 14.818 22.561 14.3521C22.561 13.8861 22.1693 13.5083 21.686 13.5083C21.2028 13.5083 20.811 13.8861 20.811 14.3521C20.811 14.818 21.2028 15.1958 21.686 15.1958Z" fill="#7F3A35"/>
<path id="Vector_22" d="M20.4601 17.48C20.9433 17.48 21.3351 17.1022 21.3351 16.6362C21.3351 16.1702 20.9433 15.7925 20.4601 15.7925C19.9768 15.7925 19.5851 16.1702 19.5851 16.6362C19.5851 17.1022 19.9768 17.48 20.4601 17.48Z" fill="#7F3A35"/>
<path id="Vector_23" d="M19.2343 19.7642C19.7175 19.7642 20.1093 19.3864 20.1093 18.9204C20.1093 18.4544 19.7175 18.0767 19.2343 18.0767C18.751 18.0767 18.3593 18.4544 18.3593 18.9204C18.3593 19.3864 18.751 19.7642 19.2343 19.7642Z" fill="#7F3A35"/>
<path id="Vector_24" d="M16.3074 24.0166C16.7906 24.0166 17.1824 23.6388 17.1824 23.1729C17.1824 22.7069 16.7906 22.3291 16.3074 22.3291C15.8241 22.3291 15.4324 22.7069 15.4324 23.1729C15.4324 23.6388 15.8241 24.0166 16.3074 24.0166Z" fill="#7F3A35"/>
<path id="Vector_25" d="M14.0804 25.4155C14.5637 25.4155 14.9554 25.0378 14.9554 24.5718C14.9554 24.1058 14.5637 23.728 14.0804 23.728C13.5972 23.728 13.2054 24.1058 13.2054 24.5718C13.2054 25.0378 13.5972 25.4155 14.0804 25.4155Z" fill="#7F3A35"/>
<path id="Vector_26" d="M11.5203 26.0986C12.0035 26.0986 12.3953 25.7209 12.3953 25.2549C12.3953 24.7889 12.0035 24.4111 11.5203 24.4111C11.037 24.4111 10.6453 24.7889 10.6453 25.2549C10.6453 25.7209 11.037 26.0986 11.5203 26.0986Z" fill="#7F3A35"/>
<path id="Vector_27" d="M8.86633 26.0088C9.34958 26.0088 9.74133 25.631 9.74133 25.165C9.74133 24.699 9.34958 24.3213 8.86633 24.3213C8.38308 24.3213 7.99133 24.699 7.99133 25.165C7.99133 25.631 8.38308 26.0088 8.86633 26.0088Z" fill="#7F3A35"/>
<path id="Vector_28" d="M18.0005 22.043C18.4837 22.043 18.8755 21.6652 18.8755 21.1992C18.8755 20.7332 18.4837 20.3555 18.0005 20.3555C17.5172 20.3555 17.1255 20.7332 17.1255 21.1992C17.1255 21.6652 17.5172 22.043 18.0005 22.043Z" fill="#7F3A35"/>
<path id="Vector_29" d="M25.2814 3.57764C25.7646 3.57764 26.1564 3.19988 26.1564 2.73389C26.1564 2.2679 25.7646 1.89014 25.2814 1.89014C24.7981 1.89014 24.4064 2.2679 24.4064 2.73389C24.4064 3.19988 24.7981 3.57764 25.2814 3.57764Z" fill="#7F3A35"/>
<path id="Vector_30" d="M22.9146 2.53467C23.3978 2.53467 23.7896 2.15691 23.7896 1.69092C23.7896 1.22493 23.3978 0.847168 22.9146 0.847168C22.4313 0.847168 22.0396 1.22493 22.0396 1.69092C22.0396 2.15691 22.4313 2.53467 22.9146 2.53467Z" fill="#7F3A35"/>
<path id="Vector_31" d="M10.5 22.7812C10.9832 22.7812 11.375 22.4035 11.375 21.9375C11.375 21.4715 10.9832 21.0938 10.5 21.0938C10.0168 21.0938 9.625 21.4715 9.625 21.9375C9.625 22.4035 10.0168 22.7812 10.5 22.7812Z" fill="#7F3A35"/>
<path id="Vector_32" d="M5.25 17.7188C5.73325 17.7188 6.125 17.341 6.125 16.875C6.125 16.409 5.73325 16.0312 5.25 16.0312C4.76675 16.0312 4.375 16.409 4.375 16.875C4.375 17.341 4.76675 17.7188 5.25 17.7188Z" fill="#7F3A35"/>
<path id="Vector_33" d="M15.75 17.7188C16.2332 17.7188 16.625 17.341 16.625 16.875C16.625 16.409 16.2332 16.0312 15.75 16.0312C15.2668 16.0312 14.875 16.409 14.875 16.875C14.875 17.341 15.2668 17.7188 15.75 17.7188Z" fill="#7F3A35"/>
<path id="Vector_34" d="M5.95349 15.1875C6.43674 15.1875 6.82849 14.8097 6.82849 14.3438C6.82849 13.8778 6.43674 13.5 5.95349 13.5C5.47024 13.5 5.07849 13.8778 5.07849 14.3438C5.07849 14.8097 5.47024 15.1875 5.95349 15.1875Z" fill="#7F3A35"/>
<path id="Vector_35" d="M15.0465 20.25C15.5298 20.25 15.9215 19.8722 15.9215 19.4062C15.9215 18.9403 15.5298 18.5625 15.0465 18.5625C14.5633 18.5625 14.1715 18.9403 14.1715 19.4062C14.1715 19.8722 14.5633 20.25 15.0465 20.25Z" fill="#7F3A35"/>
<path id="Vector_36" d="M7.875 22.103C8.35825 22.103 8.75 21.7253 8.75 21.2593C8.75 20.7933 8.35825 20.4155 7.875 20.4155C7.39175 20.4155 7 20.7933 7 21.2593C7 21.7253 7.39175 22.103 7.875 22.103Z" fill="#7F3A35"/>
<path id="Vector_37" d="M13.125 13.3345C13.6082 13.3345 14 12.9567 14 12.4907C14 12.0247 13.6082 11.647 13.125 11.647C12.6418 11.647 12.25 12.0247 12.25 12.4907C12.25 12.9567 12.6418 13.3345 13.125 13.3345Z" fill="#7F3A35"/>
<path id="Vector_38" d="M7.875 13.3345C8.35825 13.3345 8.75 12.9567 8.75 12.4907C8.75 12.0247 8.35825 11.647 7.875 11.647C7.39175 11.647 7 12.0247 7 12.4907C7 12.9567 7.39175 13.3345 7.875 13.3345Z" fill="#7F3A35"/>
<path id="Vector_39" d="M13.125 22.103C13.6082 22.103 14 21.7253 14 21.2593C14 20.7933 13.6082 20.4155 13.125 20.4155C12.6418 20.4155 12.25 20.7933 12.25 21.2593C12.25 21.7253 12.6418 22.103 13.125 22.103Z" fill="#7F3A35"/>
<path id="Vector_40" d="M5.95349 20.25C6.43674 20.25 6.82849 19.8722 6.82849 19.4062C6.82849 18.9403 6.43674 18.5625 5.95349 18.5625C5.47024 18.5625 5.07849 18.9403 5.07849 19.4062C5.07849 19.8722 5.47024 20.25 5.95349 20.25Z" fill="#7F3A35"/>
<path id="Vector_41" d="M15.0465 15.1875C15.5298 15.1875 15.9215 14.8097 15.9215 14.3438C15.9215 13.8778 15.5298 13.5 15.0465 13.5C14.5633 13.5 14.1715 13.8778 14.1715 14.3438C14.1715 14.8097 14.5633 15.1875 15.0465 15.1875Z" fill="#7F3A35"/>
<path id="Vector_42" d="M26.25 5.92822C26.7332 5.92822 27.125 5.55046 27.125 5.08447C27.125 4.61848 26.7332 4.24072 26.25 4.24072C25.7668 4.24072 25.375 4.61848 25.375 5.08447C25.375 5.55046 25.7668 5.92822 26.25 5.92822Z" fill="#7F3A35"/>
</g>
<defs>
<clipPath id="clip0_52_1525">
<rect width="28" height="27" fill="white"/>
</clipPath>
</defs>
</svg>
