<svg width="23" height="23" viewBox="0 0 23 23" fill="none" xmlns="http://www.w3.org/2000/svg">
<g id="ri:seo-line">
<path id="Vector" d="M7.66671 2.875C5.88755 2.875 4.18126 3.58177 2.9232 4.83983C1.66514 6.09788 0.958374 7.80417 0.958374 9.58333C0.958374 11.3625 1.66514 13.0688 2.9232 14.3268C4.18126 15.5849 5.88755 16.2917 7.66671 16.2917H8.69212C8.60117 15.656 8.60117 15.0107 8.69212 14.375H7.66671C6.39588 14.375 5.1771 13.8702 4.27849 12.9716C3.37988 12.0729 2.87504 10.8542 2.87504 9.58333C2.87504 8.3125 3.37988 7.09373 4.27849 6.19511C5.1771 5.2965 6.39588 4.79167 7.66671 4.79167H15.3334C16.044 4.79152 16.7458 4.94944 17.3878 5.25397C18.0299 5.55851 18.5962 6.00204 19.0457 6.55244C19.4951 7.10284 19.8166 7.74632 19.9867 8.43628C20.1568 9.12624 20.1713 9.8454 20.0292 10.5417C20.5938 11.0953 21.0564 11.7441 21.3958 12.4583C21.8809 11.4357 22.0993 10.307 22.0308 9.17728C21.9623 8.04753 21.609 6.95349 21.004 5.99699C20.3989 5.0405 19.5616 4.25264 18.5702 3.70677C17.5787 3.1609 16.4652 2.87477 15.3334 2.875H7.66671ZM15.3334 12.4583C14.5709 12.4583 13.8396 12.7612 13.3004 13.3004C12.7613 13.8396 12.4584 14.5708 12.4584 15.3333C12.4584 16.0958 12.7613 16.8271 13.3004 17.3663C13.8396 17.9054 14.5709 18.2083 15.3334 18.2083C16.0959 18.2083 16.8271 17.9054 17.3663 17.3663C17.9055 16.8271 18.2084 16.0958 18.2084 15.3333C18.2084 14.5708 17.9055 13.8396 17.3663 13.3004C16.8271 12.7612 16.0959 12.4583 15.3334 12.4583ZM10.5417 15.3333C10.5419 14.5862 10.7168 13.8495 11.0524 13.182C11.388 12.5145 11.875 11.9348 12.4746 11.489C13.0742 11.0433 13.7696 10.744 14.5055 10.6149C15.2414 10.4858 15.9972 10.5306 16.7127 10.7456C17.4282 10.9607 18.0835 11.3401 18.6262 11.8535C19.169 12.3669 19.5841 13.0001 19.8386 13.7026C20.093 14.405 20.1797 15.1572 20.0917 15.8991C20.0036 16.641 19.7433 17.3521 19.3315 17.9755L21.7609 20.4058L20.4058 21.7609L17.9755 19.3315C17.2533 19.8089 16.4152 20.0816 15.5503 20.1208C14.6855 20.16 13.8261 19.9642 13.0637 19.5541C12.3012 19.144 11.6641 18.535 11.2201 17.7919C10.776 17.0487 10.5416 16.1991 10.5417 15.3333Z" fill="#9E9E9E"/>
</g>
</svg>
