<svg width="23" height="23" viewBox="0 0 23 23" fill="none" xmlns="http://www.w3.org/2000/svg">
<g id="tabler:api-app">
<path id="Vector" d="M11.5 14.375H5.27083C4.63542 14.375 4.02603 14.1226 3.57672 13.6733C3.12742 13.224 2.875 12.6146 2.875 11.9792C2.875 11.3438 3.12742 10.7344 3.57672 10.2851C4.02603 9.83575 4.63542 9.58333 5.27083 9.58333H5.75M14.375 11.5V17.7292C14.375 18.3646 14.1226 18.974 13.6733 19.4233C13.224 19.8726 12.6146 20.125 11.9792 20.125C11.3438 20.125 10.7344 19.8726 10.2851 19.4233C9.83575 18.974 9.58333 18.3646 9.58333 17.7292V17.25M11.5 8.625H17.7292C18.3646 8.625 18.974 8.87742 19.4233 9.32672C19.8726 9.77603 20.125 10.3854 20.125 11.0208C20.125 11.6562 19.8726 12.2656 19.4233 12.7149C18.974 13.1642 18.3646 13.4167 17.7292 13.4167H17.25M8.625 11.5V5.27083C8.625 4.63542 8.87742 4.02603 9.32672 3.57672C9.77603 3.12742 10.3854 2.875 11.0208 2.875C11.6562 2.875 12.2656 3.12742 12.7149 3.57672C13.1642 4.02603 13.4167 4.63542 13.4167 5.27083V5.75" stroke="#9E9E9E" stroke-width="2" stroke-linecap="round" stroke-linejoin="round"/>
</g>
</svg>
