<svg width="23" height="23" viewBox="0 0 23 23" fill="none" xmlns="http://www.w3.org/2000/svg">
<g id="tabler:affiliate">
<path id="Vector" d="M5.68392 6.64716L6.90579 10.7191M12.2792 16.0944L16.353 17.3163M11.1962 11.804L16.7153 6.28491M3.83337 5.271C3.83337 5.45977 3.87056 5.6467 3.9428 5.8211C4.01504 5.99551 4.12092 6.15398 4.25441 6.28746C4.38789 6.42095 4.54636 6.52683 4.72077 6.59907C4.89517 6.67131 5.0821 6.7085 5.27087 6.7085C5.45965 6.7085 5.64658 6.67131 5.82098 6.59907C5.99539 6.52683 6.15386 6.42095 6.28734 6.28746C6.42082 6.15398 6.52671 5.99551 6.59895 5.8211C6.67119 5.6467 6.70837 5.45977 6.70837 5.271C6.70837 5.08222 6.67119 4.89529 6.59895 4.72089C6.52671 4.54648 6.42082 4.38801 6.28734 4.25453C6.15386 4.12105 5.99539 4.01516 5.82098 3.94292C5.64658 3.87068 5.45965 3.8335 5.27087 3.8335C5.0821 3.8335 4.89517 3.87068 4.72077 3.94292C4.54636 4.01516 4.38789 4.12105 4.25441 4.25453C4.12092 4.38801 4.01504 4.54648 3.9428 4.72089C3.87056 4.89529 3.83337 5.08222 3.83337 5.271ZM16.2917 5.271C16.2917 5.65224 16.4432 6.01788 16.7127 6.28746C16.9823 6.55705 17.348 6.7085 17.7292 6.7085C18.1105 6.7085 18.4761 6.55705 18.7457 6.28746C19.0153 6.01788 19.1667 5.65224 19.1667 5.271C19.1667 4.88975 19.0153 4.52411 18.7457 4.25453C18.4761 3.98495 18.1105 3.8335 17.7292 3.8335C17.348 3.8335 16.9823 3.98495 16.7127 4.25453C16.4432 4.52411 16.2917 4.88975 16.2917 5.271ZM16.2917 17.7293C16.2917 18.1106 16.4432 18.4762 16.7127 18.7458C16.9823 19.0154 17.348 19.1668 17.7292 19.1668C18.1105 19.1668 18.4761 19.0154 18.7457 18.7458C19.0153 18.4762 19.1667 18.1106 19.1667 17.7293C19.1667 17.3481 19.0153 16.9824 18.7457 16.7129C18.4761 16.4433 18.1105 16.2918 17.7292 16.2918C17.348 16.2918 16.9823 16.4433 16.7127 16.7129C16.4432 16.9824 16.2917 17.3481 16.2917 17.7293ZM3.83337 14.8543C3.83337 15.9981 4.28773 17.095 5.09648 17.9037C5.90523 18.7125 7.00213 19.1668 8.14587 19.1668C9.28962 19.1668 10.3865 18.7125 11.1953 17.9037C12.004 17.095 12.4584 15.9981 12.4584 14.8543C12.4584 13.7106 12.004 12.6137 11.1953 11.8049C10.3865 10.9962 9.28962 10.5418 8.14587 10.5418C7.00213 10.5418 5.90523 10.9962 5.09648 11.8049C4.28773 12.6137 3.83337 13.7106 3.83337 14.8543Z" stroke="#9E9E9E" stroke-width="2" stroke-linecap="round" stroke-linejoin="round"/>
</g>
</svg>
